<svg width="67" height="64" viewBox="0 0 67 64" fill="none" xmlns="http://www.w3.org/2000/svg">
<path fill-rule="evenodd" clip-rule="evenodd" d="M38.349 1.06171C37.8973 1.06171 37.4777 1.1588 37.0905 1.28824C37.9134 1.83839 38.3652 2.56654 38.5911 3.39177C38.6072 3.50503 38.6395 3.58594 38.6556 3.6992C38.6718 3.79629 38.6879 3.89338 38.6879 3.99046C38.7524 5.41439 38.3168 5.59238 38.0102 6.43379C37.5423 7.51792 37.6714 8.68294 38.2361 9.62144C38.2845 9.73471 38.349 9.86415 38.4297 9.97742C37.8166 5.88364 41.2211 5.26876 41.8503 3.99046C41.8987 2.87398 40.979 2.12965 40.253 1.61186C39.5592 1.19115 38.9299 1.06171 38.349 1.06171ZM43.48 1.98402C43.4154 2.35618 43.4638 2.2591 43.4477 2.45327C43.4316 2.58272 43.4316 2.74453 43.4155 2.87397C43.3832 3.00342 43.3509 3.13287 43.3025 3.26232C43.2703 3.39177 43.2219 3.52122 43.1735 3.65066C43.1089 3.78011 43.0605 3.89338 42.996 4.02282C42.9476 4.08757 42.9153 4.15227 42.8669 4.217C42.8346 4.26554 42.8023 4.31408 42.7701 4.36263C42.6894 4.4759 42.6087 4.58916 42.5281 4.68624C42.4312 4.78333 42.3506 4.89659 42.2376 4.97751V4.99371C42.1408 5.07461 42.044 5.1717 41.9311 5.2526C41.5922 5.51149 41.205 5.70567 40.85 5.94838C40.7371 6.02928 40.6241 6.09401 40.5273 6.1911C40.4144 6.272 40.3176 6.3529 40.2207 6.44999C40.1078 6.54708 40.0271 6.64416 39.9303 6.75743C39.8496 6.85452 39.7528 6.96778 39.6883 7.08105C39.6076 7.19431 39.5269 7.30758 39.4624 7.42085C39.3978 7.55029 39.3495 7.66357 39.2849 7.79301C39.2365 7.92245 39.1881 8.03573 39.1558 8.16517C39.1074 8.3108 39.0752 8.44025 39.0429 8.5697C39.0267 8.63445 39.0267 8.71533 39.0106 8.78005C38.9945 8.8448 38.9945 8.9095 38.9784 8.97423C38.9784 9.10367 38.9622 9.2493 38.9622 9.37875C38.9622 9.47583 38.9622 9.57292 38.9784 9.67001C38.9784 9.79945 38.9946 9.9289 39.0268 10.0745C39.043 10.204 39.0752 10.3334 39.1075 10.4629C39.1559 10.5923 39.1882 10.7218 39.2366 10.8512C39.2688 10.9321 39.3172 11.013 39.3495 11.0777L35.6385 9.63764C35.0092 9.45965 34.3961 9.29784 33.7668 9.15221C33.4279 9.07131 33.0891 8.9904 32.7503 8.9095C31.7822 8.71533 30.7979 8.5697 29.8137 8.47262C29.7815 8.47262 29.7653 8.45641 29.733 8.45641C28.7649 8.35933 27.813 8.31079 26.8449 8.31079C26.1349 8.31079 25.425 8.34312 24.7312 8.39169C23.7469 8.45644 22.7627 8.58586 21.7785 8.74767C21.5364 8.78001 21.2944 8.82858 21.0524 8.87712C20.5522 8.9742 20.0681 9.08747 19.6002 9.20074C19.3582 9.26549 19.1162 9.33019 18.8741 9.39491C18.6321 9.49199 18.4062 9.60526 18.1803 9.70235C18.0028 9.78325 17.8254 9.86416 17.6479 9.94506C17.6156 9.96127 17.5833 9.96127 17.5672 9.9774C17.4059 10.0583 17.2606 10.123 17.1154 10.2039C17.067 10.2201 17.0347 10.2363 17.0025 10.2525C16.825 10.3334 16.6475 10.4305 16.5023 10.5114C16.3893 10.5599 16.2764 10.6246 16.1796 10.6732C16.1312 10.7055 16.0666 10.7379 16.0344 10.7541C15.8892 10.835 15.7439 10.9159 15.6149 10.9968C15.4697 11.0777 15.3406 11.1586 15.2276 11.2395C15.1147 11.3204 15.0017 11.3851 14.9049 11.466C14.8888 11.4822 14.8727 11.4822 14.8565 11.4984C14.7597 11.5631 14.6468 11.644 14.55 11.7249C14.55 11.7249 14.5338 11.7411 14.5177 11.7573C14.437 11.822 14.3564 11.8867 14.2757 11.9514C14.2434 11.9676 14.2111 12 14.1789 12.0162C14.0982 12.0809 14.0175 12.1618 13.9369 12.2265C13.9207 12.2589 13.8884 12.2751 13.8723 12.2913C13.7755 12.3884 13.6787 12.4693 13.5819 12.5664C13.5657 12.5664 13.5657 12.5826 13.5496 12.5987C13.4528 12.6796 13.356 12.7767 13.2592 12.8738C13.243 12.89 13.243 12.9061 13.2269 12.9061C13.1463 12.987 13.0656 13.0679 12.9849 13.165C12.9527 13.1973 12.9042 13.2297 12.872 13.2621C12.7913 13.3592 12.6945 13.4563 12.5977 13.5533C12.5815 13.5857 12.5493 13.6019 12.5331 13.6342C12.404 13.7637 12.2911 13.8931 12.162 14.0226C12.1458 14.0388 12.1298 14.0549 12.1136 14.0711C11.8554 14.3462 11.5811 14.6213 11.2907 14.864C11.0003 15.1229 10.6937 15.3656 10.3871 15.576C10.0644 15.8025 9.75788 15.9967 9.41904 16.1908C9.09634 16.3688 8.7575 16.5306 8.40253 16.6763C8.06369 16.8219 7.70873 16.9514 7.35376 17.0646C6.67608 17.2102 5.98228 17.4853 5.38528 17.5339C5.2562 17.5339 5.11098 17.5662 4.98191 17.5824C4.83669 17.6147 4.70761 17.6472 4.57853 17.6795C4.44945 17.728 4.32037 17.7766 4.19129 17.8251C4.06221 17.8737 3.93313 17.9384 3.80405 18.0031C3.6911 18.084 3.56203 18.1487 3.44908 18.2296C3.33613 18.3105 3.22319 18.4076 3.12638 18.5047C3.01343 18.5856 2.90049 18.6989 2.80368 18.796C2.70686 18.9092 2.61005 19.0063 2.52938 19.1196C2.44871 19.249 2.3519 19.3623 2.28735 19.4918C2.20668 19.605 2.12601 19.7345 2.06146 19.8639C1.9969 20.0096 1.93238 20.139 1.88398 20.2846C1.83557 20.4141 1.78717 20.5597 1.73876 20.7053C1.70652 20.8348 1.6742 20.9642 1.65809 21.0937C1.65809 21.1099 1.64193 21.126 1.64193 21.1422C1.60968 21.2878 1.60968 21.482 1.59352 21.5791C1.57736 21.6924 1.56128 21.7895 1.56128 21.9027C1.56128 21.9675 1.56128 22.0484 1.57744 22.1131C1.5936 22.2263 1.60968 22.3234 1.64201 22.4205C1.67425 22.5176 1.70657 22.6147 1.75495 22.7118V22.728C1.80335 22.8251 1.86789 22.9222 1.93243 23.0192C1.997 23.1163 2.06152 23.2134 2.14219 23.3105C2.22286 23.3914 2.31967 23.4885 2.41648 23.5694C2.5133 23.6665 2.61011 23.7474 2.72305 23.8283C3.11029 24.1681 3.2071 24.2814 3.70729 24.5402C3.78796 24.5888 3.86864 24.6212 3.96545 24.6697C3.98161 24.6697 3.9977 24.6859 4.01386 24.6859C4.01386 24.7182 4.01386 24.7344 4.03002 24.7668C4.04618 24.8963 4.07842 25.0257 4.11069 25.1552C4.14294 25.3008 4.19137 25.4302 4.23978 25.5435C4.28818 25.6406 4.32045 25.7377 4.36886 25.8348C4.38502 25.8671 4.4011 25.8995 4.41726 25.9157C4.48183 26.0451 4.54634 26.1584 4.61088 26.2716C4.69156 26.3849 4.77223 26.4982 4.8529 26.6114C4.93358 26.7085 5.03039 26.8218 5.1272 26.9189C5.22401 27.016 5.32082 27.0969 5.43377 27.1939C5.43377 27.1939 5.44993 27.2102 5.46602 27.2102C5.56283 27.2911 5.65964 27.372 5.75645 27.4367C5.86939 27.5176 5.98234 27.5823 6.11142 27.6471C6.22437 27.7118 6.35344 27.7765 6.48252 27.8251C6.57933 27.8736 6.69227 27.906 6.80522 27.9383C6.82139 27.9545 6.83747 27.9545 6.86979 27.9707C6.93435 27.9869 7.015 28.003 7.07954 28.0192C7.03114 28.893 7.01497 29.7182 7.14411 30.0095C7.28932 30.3331 7.99926 29.346 8.7092 28.2134C8.61239 29.3299 8.54785 30.6405 8.7092 31.0289C8.88669 31.4334 9.85479 30.1713 10.6938 28.7797C22.1335 26.126 32.5729 34.0547 33.6701 45.2519C33.4603 43.5044 31.3144 42.5335 30.3302 42.7762C29.8461 43.9736 29.0232 45.5108 27.7001 46.4655C27.8131 45.3976 27.7647 44.2973 27.5388 43.2293C27.1838 44.718 26.49 46.1095 25.538 47.3069C24.0052 47.4202 22.4724 46.6759 21.6656 45.5594C21.6011 45.5108 21.585 45.4137 21.5365 45.349C21.4881 45.2357 21.4397 45.1225 21.4075 45.0092C21.3591 44.896 21.3268 44.7827 21.3107 44.6694C21.2945 44.5561 21.2945 44.4429 21.2945 44.3134C21.2945 44.2325 21.2945 44.1516 21.2945 44.0707C21.3107 43.9575 21.3429 43.8442 21.3752 43.7309C21.4074 43.6177 21.4397 43.5044 21.4881 43.3911C21.5527 43.2779 21.6011 43.1646 21.6817 43.0513C21.956 42.2746 21.956 41.6436 21.4559 41.2714C21.359 41.2067 21.2622 41.1581 21.1493 41.1096C21.0847 41.0934 21.0041 41.0611 20.9395 41.0449C20.8911 41.0287 20.8589 41.0125 20.8105 40.9963C20.6975 40.964 20.5846 40.9316 20.4716 40.9154C20.3587 40.8831 20.2457 40.8669 20.1328 40.8669C20.0198 40.8506 19.8907 40.8345 19.7778 40.8345C19.6971 40.8345 19.6165 40.8507 19.5358 40.8507C19.4067 40.8507 19.2938 40.867 19.1808 40.8993C19.0679 40.9155 18.9549 40.9316 18.842 40.964C18.729 40.9964 18.6161 41.0288 18.5031 41.0773C18.3902 41.1258 18.2934 41.1744 18.1804 41.2229C18.0836 41.2715 17.9868 41.3362 17.8739 41.3847C14.1144 43.8442 16.3572 49.6047 18.9226 51.2713C17.9545 51.4493 16.9703 51.6596 16.696 51.87C16.6799 51.8862 16.6638 51.9023 16.6638 51.9023C17.3576 52.323 18.0837 52.679 18.842 52.9865C19.8746 53.3263 20.9718 53.6337 21.4559 53.7631V53.7793C22.7951 54.0544 24.1504 54.1515 25.5219 54.0706C32.6697 53.569 38.5267 48.116 39.5917 40.9317C39.6239 41.0773 39.6562 41.2067 39.6885 41.3524C39.7369 41.6436 39.8014 41.9511 39.8337 42.2585V42.2747C39.8659 42.4203 39.8821 42.566 39.8982 42.6954V42.7602C39.9144 42.9058 39.9305 43.0514 39.9305 43.1809C39.9466 43.3589 39.9627 43.5369 39.9627 43.7149V43.9737C39.9627 44.0547 39.9789 44.1517 39.9789 44.2326C39.9789 44.3297 39.9627 44.4268 39.9627 44.5239V44.7504C39.9627 44.8637 39.9466 44.9608 39.9466 45.074C39.9466 45.1388 39.9466 45.2035 39.9304 45.2844C39.9304 45.3977 39.9142 45.5109 39.9142 45.6404C39.8981 45.6889 39.8981 45.7375 39.8981 45.786C39.8819 45.9155 39.8658 46.0287 39.8497 46.1582C39.8497 46.2067 39.8497 46.2553 39.8335 46.3038C39.8173 46.4656 39.7851 46.6112 39.7689 46.7731V46.7893V46.8055C39.7367 46.9511 39.7044 47.1129 39.6721 47.2585V47.3071C39.6399 47.4527 39.6076 47.5983 39.5753 47.744C39.5753 47.7602 39.5592 47.7925 39.5592 47.8087C39.5269 47.9543 39.4946 48.1 39.4462 48.2456V48.2942C39.3978 48.456 39.3494 48.6016 39.3171 48.7472C39.301 48.7634 39.301 48.7796 39.301 48.7796C39.2526 48.9414 39.2042 49.1032 39.1558 49.265C39.0912 49.4268 39.0428 49.5724 38.9783 49.7342C38.9137 49.896 38.8653 50.0578 38.8008 50.2035C38.7362 50.3653 38.6717 50.5109 38.6072 50.6727H38.591C38.5264 50.8184 38.4619 50.9802 38.3812 51.1258C38.3651 51.1743 38.349 51.2067 38.3328 51.2391C38.3167 51.2553 38.3167 51.2714 38.3006 51.2876C37.2518 53.4073 35.7028 55.2681 33.7667 56.7244C33.6376 56.8053 33.5085 56.9024 33.3794 56.9995C33.3472 57.0318 33.2987 57.048 33.2665 57.0804C33.1535 57.1613 33.0406 57.2422 32.9115 57.3231L32.9599 57.4202H32.9761C33.2019 57.3879 33.4278 57.3554 33.6537 57.3231H33.6699C34.0894 57.2584 34.5089 57.1775 34.9284 57.0966C35.0414 57.0803 35.1704 57.048 35.2834 57.0157C35.3641 56.9994 35.4286 56.9833 35.5093 56.9671C35.6222 56.9509 35.7352 56.9186 35.8481 56.9024C35.9449 56.87 36.0417 56.8538 36.1385 56.8215C37.752 56.4331 39.3172 55.8991 40.8177 55.2681C38.2522 58.7794 34.8155 61.611 30.7978 63.4718C32.6534 63.3424 34.5089 63.035 36.2999 62.5172C42.8023 60.5916 48.2721 56.2066 51.5475 50.3005C50.886 54.0383 49.4015 57.5981 47.2072 60.7049C48.7723 59.6693 50.2083 58.4719 51.5152 57.1127C55.1295 53.3264 57.5013 48.5206 58.3081 43.3589C58.8567 45.9155 59.018 48.553 58.776 51.1581C70.4255 34.8639 59.7441 17.971 55.2747 13.5212C55.2585 13.4889 55.2424 13.4726 55.2424 13.4403C55.2263 13.4565 55.2263 13.4565 55.2263 13.4726C55.2263 13.4564 55.2263 13.4564 55.2101 13.4403C55.2101 13.6345 55.194 13.8286 55.1779 14.0228C55.1295 14.395 55.0811 14.7509 55.0165 15.1069C54.9358 15.4629 54.839 15.8189 54.7422 16.1749C54.6293 16.5147 54.5002 16.8706 54.355 17.2105C54.2098 17.5341 54.0484 17.8739 53.8709 18.1975C53.6934 18.5049 53.4998 18.8286 53.2901 19.1198C53.0803 19.4272 52.8544 19.7185 52.6285 19.9936C52.3865 20.2848 52.1283 20.5437 51.8702 20.8026C51.7088 20.9483 51.5636 21.0777 51.4023 21.2071C51.2732 21.3204 51.1602 21.4175 51.0312 21.5308C50.7407 21.7573 50.4503 21.9677 50.1276 22.1618C49.821 22.356 49.4983 22.5502 49.1756 22.712C48.8368 22.8738 48.498 23.0194 48.1591 23.165C47.8203 23.2945 47.4653 23.4078 47.1103 23.5049C46.7554 23.6019 46.3843 23.6828 46.0293 23.7476C45.6582 23.8123 45.2871 23.8446 44.9321 23.877C44.674 23.8932 44.4158 23.9094 44.1576 23.9094C43.7865 23.9094 43.4154 23.877 43.0605 23.8446C42.6894 23.8123 42.3182 23.7637 41.9633 23.6828C41.5922 23.618 41.2372 23.521 40.8822 23.4077H40.8661C41.221 23.3754 41.576 23.343 41.931 23.2783C42.3021 23.2135 42.6571 23.1326 43.012 23.0355C43.367 22.9385 43.722 22.8252 44.0608 22.6957C44.4158 22.5663 44.7546 22.4045 45.0773 22.2427C45.4162 22.0809 45.7227 21.9029 46.0454 21.7087C46.352 21.4984 46.6585 21.288 46.949 21.0615C47.2394 20.8349 47.5137 20.5922 47.7719 20.3333C48.0462 20.0906 48.2882 19.8155 48.5302 19.5405C48.7722 19.2492 48.9981 18.9579 49.2079 18.6667C49.2401 18.6181 49.2725 18.5534 49.3047 18.5049C49.466 18.246 49.6274 17.9871 49.7726 17.7282C49.9501 17.4046 50.1114 17.0809 50.2567 16.7412C50.4019 16.4014 50.531 16.0615 50.6439 15.7056C50.7568 15.3658 50.8375 15.0098 50.9182 14.6538C50.9828 14.2816 51.0473 13.9257 51.0795 13.5697C51.1118 13.1975 51.1441 12.8254 51.1441 12.4694C51.1441 12.2105 51.1279 11.9516 51.1119 11.6927C51.0796 11.3205 51.0312 10.9645 50.9828 10.6086C50.9182 10.2364 50.8376 9.88043 50.7408 9.52444C50.6278 9.18464 50.5149 8.82866 50.3858 8.48886C50.2567 8.14906 50.0954 7.80926 49.934 7.48564C49.7565 7.16202 49.579 6.8384 49.3854 6.53096C49.1757 6.22353 48.9659 5.93227 48.74 5.64101C48.498 5.36593 48.256 5.09086 47.9978 4.81578C47.8687 4.68634 47.7235 4.54071 47.5783 4.41126C46.8522 3.84492 46.0939 3.31095 45.3355 2.82552C45.2226 2.76077 45.1258 2.71225 45.0128 2.66371C44.4804 2.32391 43.9802 2.14583 43.48 1.98402Z" fill="#E0234E"/>
</svg>
