<svg width="71" height="64" viewBox="0 0 71 64" fill="none" xmlns="http://www.w3.org/2000/svg">
<g clip-path="url(#clip0_0_482)">
<path d="M35.6569 38.7725C39.3292 38.7725 42.3062 35.7404 42.3062 32C42.3062 28.2597 39.3292 25.2275 35.6569 25.2275C31.9846 25.2275 29.0075 28.2597 29.0075 32C29.0075 35.7404 31.9846 38.7725 35.6569 38.7725Z" fill="#087EA4"/>
<path d="M35.6569 47.2381C54.0186 47.2381 68.9036 40.4158 68.9036 32C68.9036 23.5842 54.0186 16.7619 35.6569 16.7619C17.2952 16.7619 2.41013 23.5842 2.41013 32C2.41013 40.4158 17.2952 47.2381 35.6569 47.2381Z" stroke="#087EA4" stroke-width="3"/>
<path d="M22.7002 39.6191C31.8811 55.8152 45.1245 65.5336 52.2803 61.3257C59.436 57.1179 57.7944 40.5771 48.6135 24.381C39.4327 8.18481 26.1893 -1.5336 19.0335 2.67429C11.8777 6.88217 13.5194 23.4229 22.7002 39.6191Z" stroke="#087EA4" stroke-width="3"/>
<path d="M22.7002 24.381C13.5194 40.5771 11.8777 57.1179 19.0335 61.3257C26.1892 65.5336 39.4327 55.8152 48.6135 39.6191C57.7943 23.4229 59.436 6.88217 52.2802 2.67429C45.1245 -1.5336 31.8811 8.18481 22.7002 24.381Z" stroke="#087EA4" stroke-width="3"/>
</g>
<defs>
<clipPath id="clip0_0_482">
<rect width="69.8182" height="64" fill="white" transform="translate(0.747803)"/>
</clipPath>
</defs>
</svg>
