<svg width="57" height="64" viewBox="0 0 57 64" fill="none" xmlns="http://www.w3.org/2000/svg">
<g clip-path="url(#clip0_0_500)">
<path d="M28.9133 64C28.0553 64 27.2545 63.7668 26.5109 63.3586L18.9036 58.7517C17.7597 58.1102 18.3316 57.877 18.6748 57.7603C20.2192 57.2355 20.5052 57.1189 22.1067 56.1859C22.2783 56.0692 22.5071 56.1275 22.6786 56.2442L28.5128 59.8014C28.7417 59.918 29.0277 59.918 29.1992 59.8014L52.0212 46.3307C52.25 46.214 52.3644 45.9808 52.3644 45.6892V18.806C52.3644 18.5145 52.25 18.2812 52.0212 18.1646L29.1992 4.75223C28.9705 4.63561 28.6844 4.63561 28.5128 4.75223L5.69091 18.1646C5.46213 18.2812 5.34773 18.5728 5.34773 18.806V45.6892C5.34773 45.9224 5.46213 46.214 5.69091 46.3307L11.9255 50.0045C15.3002 51.7539 17.4165 49.7129 17.4165 47.6719V21.1386C17.4165 20.7888 17.7025 20.4389 18.1028 20.4389H21.02C21.3631 20.4389 21.7063 20.7305 21.7063 21.1386V47.6719C21.7063 52.2788 19.2468 54.9613 14.9569 54.9613C13.6414 54.9613 12.6119 54.9613 9.69474 53.5034L3.68899 50.0045C2.20185 49.1297 1.28668 47.4969 1.28668 45.7475V18.8644C1.28668 17.115 2.20185 15.4822 3.68899 14.6074L26.5109 1.13672C27.9409 0.320313 29.8856 0.320313 31.3156 1.13672L54.1375 14.6074C55.6247 15.4822 56.5398 17.115 56.5398 18.8644V45.7475C56.5398 47.4969 55.6247 49.1297 54.1375 50.0045L31.3156 63.4752C30.6292 63.7668 29.7712 64 28.9133 64Z" fill="#5FA04E"/>
<path d="M36.0058 45.5142C25.9962 45.5142 23.9371 40.849 23.9371 36.8836C23.9371 36.5338 24.223 36.1839 24.6234 36.1839H27.5977C27.9409 36.1839 28.2269 36.4172 28.2269 36.767C28.6845 39.8577 30 41.3739 36.063 41.3739C40.8676 41.3739 42.9268 40.2659 42.9268 37.6417C42.9268 36.1256 42.3547 35.0176 34.8618 34.2595C28.6273 33.618 24.7378 32.2185 24.7378 27.1451C24.7378 22.4216 28.6273 19.6225 35.1478 19.6225C42.4691 19.6225 46.0726 22.1883 46.5302 27.7865C46.5302 27.9615 46.473 28.1364 46.3586 28.3114C46.2442 28.428 46.0726 28.5447 45.901 28.5447H42.8696C42.5835 28.5447 42.2976 28.3114 42.2404 28.0198C41.554 24.8125 39.7808 23.7628 35.0907 23.7628C29.8284 23.7628 29.1993 25.6289 29.1993 27.0284C29.1993 28.7196 29.9428 29.2445 37.0354 30.1775C44.0707 31.1105 47.3882 32.4517 47.3882 37.4668C47.3882 42.5985 43.2127 45.5142 36.0058 45.5142Z" fill="#5FA04E"/>
</g>
<defs>
<clipPath id="clip0_0_500">
<rect width="56.32" height="64" fill="white" transform="translate(0.653809)"/>
</clipPath>
</defs>
</svg>
